<?xml version="1.0" encoding="UTF-8"?>
<svg width="700pt" height="700pt" version="1.1" viewBox="0 0 700 700" xmlns="http://www.w3.org/2000/svg" xmlns:xlink="http://www.w3.org/1999/xlink">
 <defs>
  <symbol id="w" overflow="visible">
   <path d="m0.03125 0h-0.015625-0.015625v-0.015625-0.015625h0.015625 0.015625-0.015625v0.015625 0.015625h0.015625v-0.015625z"/>
  </symbol>
  <symbol id="e" overflow="visible">
   <path d="m0.015625-0.015625v0.015625h-0.015625v-0.03125h0.015625v0.015625-0.015625z"/>
  </symbol>
  <symbol id="b" overflow="visible">
   <path d="m0.03125-0.015625h-0.015625v0.015625c0.0078125 0 0.015625-0.0039062 0.015625-0.015625v0.015625h-0.015625-0.015625v-0.015625l0.015625-0.015625v0.015625h0.015625z"/>
  </symbol>
  <symbol id="a" overflow="visible">
   <path d="m0.015625-0.015625v0.015625-0.015625zm0.015625 0v0.015625h-0.015625-0.015625v-0.015625h0.015625-0.015625v-0.015625h0.015625v0.015625h0.015625z"/>
  </symbol>
  <symbol id="d" overflow="visible">
   <path d="m0.015625-0.03125v0.015625 0.015625h-0.015625v-0.015625-0.015625z"/>
  </symbol>
  <symbol id="l" overflow="visible">
   <path d="m0.015625-0.015625v-0.015625h0.015625v0.03125h-0.015625-0.015625v-0.015625l0.015625-0.015625v0.015625zm0 0.015625v-0.015625 0.015625z"/>
  </symbol>
  <symbol id="k" overflow="visible">
   <path d="m0.015625 0v-0.015625 0.015625zm0-0.015625v-0.015625c0.0078125 0 0.015625 0.0078125 0.015625 0.015625v0.015625h-0.015625-0.015625v-0.03125h0.015625z"/>
  </symbol>
  <symbol id="j" overflow="visible">
   <path d="m0-0.03125h0.015625v0.015625-0.015625h0.015625l-0.015625 0.03125v0.015625h-0.015625v-0.015625h0.015625z"/>
  </symbol>
  <symbol id="i" overflow="visible">
   <path d="m0.015625-0.03125v0.015625 0.015625h0.015625v-0.015625c0-0.0078125-0.0078125-0.015625-0.015625-0.015625zm0 0h0.015625v0.015625 0.015625h-0.015625-0.015625v-0.015625-0.015625h0.015625z"/>
  </symbol>
  <symbol id="v" overflow="visible">
   <path d="m0-0.03125h0.015625v0.03125h-0.015625z"/>
  </symbol>
  <symbol id="f" overflow="visible">
   <path d="m0.03125-0.015625v0.015625h-0.015625v-0.015625 0.015625h-0.015625v-0.03125h0.015625v0.015625-0.015625c0.0078125 0 0.015625 0.0078125 0.015625 0.015625z"/>
  </symbol>
  <symbol id="h" overflow="visible">
   <path d="m0-0.03125h0.015625 0.015625v0.015625h-0.015625v0.015625h-0.015625zm0.015625 0v0.015625-0.015625z"/>
  </symbol>
  <symbol id="g" overflow="visible">
   <path d="m0.03125-0.03125v0.015625h-0.015625c0.0078125 0 0.015625 0.0078125 0.015625 0.015625h-0.015625-0.015625 0.015625v-0.015625h-0.015625l0.015625-0.015625h0.015625z"/>
  </symbol>
  <symbol id="c" overflow="visible">
   <path d="m0.015625-0.015625v0.015625-0.015625zm0-0.015625v0.015625h0.015625c0 0.011719-0.0078125 0.015625-0.015625 0.015625h-0.015625v-0.015625l0.015625-0.015625z"/>
  </symbol>
  <symbol id="u" overflow="visible">
   <path d="m0-0.03125h0.015625v0.015625-0.015625h0.015625l-0.015625 0.03125z"/>
  </symbol>
  <symbol id="t" overflow="visible">
   <path d="m0-0.03125h0.015625v0.015625-0.015625h0.015625l-0.015625 0.015625 0.015625 0.015625h-0.015625v-0.015625 0.015625h-0.015625z"/>
  </symbol>
  <symbol id="s" overflow="visible">
   <path d="m0.015625-0.03125v0.03125h-0.015625v-0.03125h0.015625z"/>
  </symbol>
  <symbol id="r" overflow="visible">
   <path d="m0.03125-0.015625v-0.015625c0.0078125 0 0.015625 0.0078125 0.015625 0.015625v0.015625h-0.015625v-0.015625 0.015625h-0.015625v-0.015625 0.015625h-0.015625v-0.03125h0.015625v0.015625-0.015625 0.015625h0.015625z"/>
  </symbol>
  <symbol id="q" overflow="visible">
   <path d="m0.03125-0.015625v0.015625h-0.015625v-0.015625 0.015625h-0.015625v-0.03125h0.015625v0.015625-0.015625c0.0078125 0 0.015625 0.0078125 0.015625 0.015625z"/>
  </symbol>
  <symbol id="p" overflow="visible">
   <path d="m0-0.03125h0.015625l0.015625 0.015625v-0.015625 0.03125l-0.015625-0.015625v0.015625h-0.015625z"/>
  </symbol>
  <symbol id="o" overflow="visible">
   <path d="m0-0.015625v-0.015625h0.015625v0.015625 0.015625-0.015625-0.015625h0.015625v0.03125h-0.015625-0.015625v-0.015625z"/>
  </symbol>
  <symbol id="n" overflow="visible">
   <path d="m0-0.03125h0.015625v0.03125h-0.015625v0.015625zm0 0h0.015625z"/>
  </symbol>
  <symbol id="m" overflow="visible">
   <path d="m0.03125-0.03125v0.015625h-0.015625v0.015625h0.015625-0.015625-0.015625v-0.015625l0.015625-0.015625h0.015625z"/>
  </symbol>
 </defs>
 <g>
  <path d="m345.31 536.87c0-2.0547 1.6641-3.7188 3.7188-3.7188 2.0547 0 3.7188 1.6641 3.7188 3.7188-0.011719 4.8633 0.96875 7.7539 2.9531 9.3594 2.2031 1.7812 5.9258 2.5 11.035 2.8047 9.9258 0.58984 18.367 0.125 25.535-1.6484 0.015625-0.003906 0.027344-0.007812 0.042969-0.011718 0.10156-0.03125 0.20703-0.058594 0.31641-0.078125 0.015625-0.003907 0.027344-0.007813 0.042969-0.011719 2.9258-0.75 5.6367-1.7227 8.1445-2.9336 8.5273-4.1211 14.91-11.152 19.758-21.84 8.8398-19.492-4.0781-42.371-15.746-63.035-1.2383-2.1914-2.4609-4.3594-2.8398-5.0352-8.1211-14.547-8.1875-34.73-3.8438-56.301 5.6094-27.852 18.562-58.188 30.805-81.348 13.902-26.297 13.789-56.477 13.68-86.203-0.023437-5.9922-0.042968-11.969 0.046875-17.887 0.085938-5.6289-0.32031-9.1836-1.5273-12.004-1.1797-2.7656-3.3047-5.1484-6.6328-8.3867-13.664-13.301-27.793-26.547-41.898-39.77-3.7461-3.5117-7.4922-7.0273-11.23-10.539-14.559-13.684-1.9297-32.941 8.9688-49.566 2.2773-3.4727 4.4727-6.8203 6.1914-9.7695 0.25-0.42969 0.14062-1.0977-0.18359-1.7852-0.3125-0.66016-0.8125-1.2891-1.4297-1.8125-0.60156-0.50781-1.2773-0.88281-1.957-1.0469-0.88672-0.21484-1.8711-0.046875-2.7891 0.73047-2.5547 2.1602-6.668 9.0625-11.625 17.387l-0.28125 0.47656c-1.2344 2.0742-2.7227 3.9844-4.3438 5.5117-1.8125 1.7109-3.8398 2.9883-5.9609 3.5898-2.4688 0.69922-4.9766 0.49609-7.3633-0.92188-0.70312-0.41797-1.3828-0.94141-2.0234-1.5742-0.25781-0.25391-0.61719-0.33594-0.96094-0.21875s-0.57422 0.40234-0.62109 0.76172c-2.3984 18.586-6.1641 14.832 6.1055 35.051 8.418 13.867 23.418 32.031 37.055 48.539 3.7969 4.5977 7.4844 9.0625 11.348 13.836 3.9414 4.8711 5.582 14.723 5.7539 26.445 0.20703 14.047-1.5938 31.082-3.9727 45.09-0.007813 0.054688-0.019531 0.11328-0.027344 0.16797-0.078125 0.46094 0.1875 0.90234 0.63281 1.0469 0.44531 0.14453 0.91797-0.054688 1.125-0.47656 0.44141-0.89453 0.86719-1.8125 1.2734-2.7461 0.82031-1.8828 3.0156-2.7461 4.8984-1.9258 1.8828 0.82031 2.7461 3.0156 1.9258 4.8984-5.8047 13.355-14.559 22.434-23.609 31.824-0.27734 0.28906-0.55469 0.57812-0.83594 0.86719-8.2812 8.5977-16.746 17.586-22.969 30.395-0.003907 0.007812-0.007813 0.015624-0.011719 0.023437-0.35938 0.80078-1.0039 1.4805-1.8672 1.8672-1.875 0.84375-4.082 0.011719-4.9297-1.8672-2.7969-6.1641-4.5078-11.816-5.4805-17.879-0.61719-3.8398-0.92969-7.8086-1.0273-12.16-0.007812-0.36719-0.21094-0.67578-0.54688-0.82812-0.33203-0.15234-0.69922-0.10156-0.98438 0.12891-2.6797 2.2188-5.0586 4.5078-6.7812 7.0586-1.1523 1.707-3.4688 2.1562-5.1758 1.0078-0.42578-0.28516-0.77344-0.64453-1.0352-1.0508-0.003906-0.003907-0.007813-0.007813-0.007813-0.015625-2.1562-3.1641-5.3242-5.9297-8.8086-8.6602-0.28516-0.22266-0.65234-0.26563-0.98047-0.10547-0.32812 0.15625-0.52344 0.46875-0.52734 0.83203-0.054687 5-0.35938 9.4805-1.0547 13.793-0.97266 6.0586-2.6836 11.715-5.4805 17.879-0.84375 1.875-3.0508 2.7109-4.9297 1.8672-0.86328-0.39062-1.5078-1.0664-1.8672-1.8672-0.003906-0.007813-0.007813-0.015625-0.011719-0.023437-6.2227-12.809-14.684-21.793-22.969-30.391-0.28125-0.28906-0.55859-0.57812-0.83594-0.86719-9.0508-9.3906-17.805-18.469-23.609-31.824-0.82031-1.8828 0.039063-4.0781 1.9258-4.8984 1.8828-0.82031 4.0781 0.039062 4.8984 1.9258 0.40625 0.9375 0.83203 1.8516 1.2734 2.7461 0.20703 0.41797 0.67969 0.62109 1.125 0.47656 0.44531-0.14453 0.71094-0.58594 0.63281-1.0469-0.007812-0.054687-0.019531-0.11328-0.027343-0.16797-2.3789-14.008-4.1797-31.047-3.9766-45.09 0.17188-11.723 1.8125-21.574 5.7539-26.445 3.8633-4.7734 7.5508-9.2383 11.344-13.836 13.633-16.508 28.637-34.672 37.055-48.539 12.273-20.219 8.5039-16.461 6.1055-35.051-0.046876-0.35938-0.27734-0.64453-0.62109-0.76172-0.34375-0.11719-0.69922-0.039062-0.96094 0.21875-0.64062 0.63281-1.3164 1.1562-2.0234 1.5742-2.3867 1.4219-4.8945 1.6211-7.3633 0.92188-2.1172-0.60156-4.1445-1.8789-5.9609-3.5898-1.6211-1.5312-3.1094-3.4375-4.3438-5.5117l-0.28125-0.47656c-4.957-8.3203-9.0703-15.227-11.625-17.387-0.91797-0.77734-1.9062-0.94141-2.7891-0.73047-0.68359 0.16406-1.3555 0.53906-1.957 1.0469-0.62109 0.52344-1.1172 1.1562-1.4297 1.8125-0.32812 0.69141-0.4375 1.3555-0.18359 1.7852 1.7188 2.9492 3.9141 6.2969 6.1914 9.7695 10.898 16.625 23.523 35.883 8.9688 49.566-3.7383 3.5156-7.4844 7.0273-11.234 10.543-14.102 13.223-28.23 26.465-41.895 39.766-3.3281 3.2383-5.4492 5.6211-6.6328 8.3867-1.2031 2.8203-1.6094 6.375-1.5273 12.004 0.089843 5.918 0.066406 11.895 0.046875 17.887-0.10938 29.727-0.22266 59.906 13.68 86.203 12.242 23.16 25.195 53.496 30.805 81.348 4.3438 21.574 4.2773 41.754-3.8438 56.301-0.37891 0.67578-1.6016 2.8438-2.8398 5.0391-11.668 20.66-24.59 43.543-15.746 63.031 5.7422 12.656 13.676 20.203 24.828 23.871 10.672 3.5117 24.414 3.6445 42.023 1.4023 0.29688-0.039062 0.53906-0.19922 0.69141-0.46094s0.16797-0.55078 0.050781-0.82812c-1.0742-2.5664-1.6055-5.7227-1.5938-9.6211zm18.609-483.36c-1.7812-1.0312-2.3867-3.3086-1.3555-5.0898s3.3086-2.3867 5.0898-1.3555l13.008 7.5078c1.7812 1.0312 2.3867 3.3086 1.3555 5.0898s-3.3086 2.3867-5.0898 1.3555zm3.9766-18.609c-1.7812 1.0234-4.0508 0.41016-5.0742-1.3711-1.0234-1.7812-0.41016-4.0508 1.3711-5.0742l13.008-7.5078c1.7812-1.0234 4.0508-0.41016 5.0742 1.3711 1.0234 1.7812 0.41016 4.0508-1.3711 5.0742zm-14.105-12.754c0 2.0625-1.6719 3.7344-3.7344 3.7344s-3.7344-1.6719-3.7344-3.7344v-15.02c0-2.0625 1.6719-3.7344 3.7344-3.7344s3.7344 1.6719 3.7344 3.7344zm-18.113 5.8594c1.7812 1.0312 2.3867 3.3086 1.3555 5.0898s-3.3086 2.3867-5.0898 1.3555l-13.008-7.5078c-1.7812-1.0312-2.3867-3.3086-1.3555-5.0898s3.3086-2.3867 5.0898-1.3555zm-3.9766 18.609c1.7812-1.0234 4.0508-0.41016 5.0742 1.3711 1.0234 1.7812 0.41016 4.0508-1.3711 5.0742l-13.008 7.5078c-1.7812 1.0234-4.0508 0.41016-5.0742-1.3711-1.0234-1.7812-0.41016-4.0508 1.3711-5.0742zm14.105 12.754c0-2.0625 1.6719-3.7344 3.7344-3.7344s3.7344 1.6719 3.7344 3.7344v15.02c0 2.0625-1.6719 3.7344-3.7344 3.7344s-3.7344-1.6719-3.7344-3.7344zm-6.2656 436.79c0 0.65625 0.078126 1.3203 0.23828 1.9883 0.003906 0.015625 0.007812 0.027344 0.011718 0.039063 0.40234 1.3789-0.015624 2.9258-1.1836 3.9062-1.5781 1.3203-3.9297 1.1133-5.25-0.46484-1.5703-1.875-2.8281-4.0391-3.6875-6.4023-0.83203-2.2891-1.2852-4.7344-1.2852-7.2695 0-5.8828 2.3867-11.211 6.2422-15.066 3.8555-3.8555 9.1836-6.2422 15.066-6.2422 5.8828 0 11.211 2.3867 15.066 6.2422 3.8555 3.8555 6.2422 9.1836 6.2422 15.066 0 2.3281-0.375 4.5781-1.0742 6.6836-0.6875 2.0781-1.6953 4.0234-2.9688 5.7852-0.007812 0.011719-0.015625 0.023437-0.027343 0.039062-0.84375 1.2969-2.4453 1.9805-4.0312 1.582-1.9961-0.5-3.2109-2.5234-2.7109-4.5195 0.11328-0.44922 0.16406-0.91016 0.16406-1.375 0-1.8047-0.85547-3.5938-2.2305-5.082-1.5039-1.6328-3.5781-2.8828-5.8477-3.4492-0.83594-0.20703-1.7031-0.32031-2.5898-0.32031-0.96094 0-1.8906 0.12109-2.7656 0.35156-2.1055 0.55469-3.9961 1.7031-5.3477 3.2539-1.2617 1.4453-2.043 3.2578-2.043 5.2578zm-1.2109-12.383c1.9531-1.5352 4.25-2.6836 6.7031-3.332 1.5234-0.40234 3.0938-0.61719 4.6602-0.61719 1.4805 0 2.957 0.19531 4.3984 0.55469 2.5234 0.63281 4.9062 1.7891 6.9492 3.3203 0.34375 0.25781 0.79688 0.25 1.1328-0.011718 0.33594-0.26172 0.45312-0.70312 0.28516-1.0977-0.69922-1.668-1.7188-3.168-2.9766-4.4258-2.5039-2.5039-5.9648-4.0547-9.7891-4.0547-3.8242 0-7.2852 1.5508-9.7891 4.0547-1.2812 1.2812-2.3125 2.8164-3.0156 4.5195-0.16406 0.39844-0.042969 0.83984 0.30078 1.1016 0.34375 0.25781 0.80078 0.25391 1.1406-0.011719zm1.4492-126.46c-0.16406 0.66406-0.23828 1.332-0.23828 1.9883 0 1.9961 0.78125 3.8125 2.043 5.2578 1.3516 1.5508 3.2422 2.6992 5.3477 3.2539 0.875 0.23047 1.8047 0.35156 2.7656 0.35156 0.88672 0 1.7539-0.11328 2.5898-0.32031 2.2695-0.56641 4.3438-1.8164 5.8477-3.4492 1.3711-1.4922 2.2305-3.2773 2.2305-5.082 0-0.46875-0.054687-0.92969-0.16406-1.375-0.5-1.9961 0.71484-4.0234 2.7109-4.5195 1.5859-0.39453 3.1875 0.28516 4.0312 1.582 0.007813 0.015625 0.015625 0.023437 0.027344 0.039062 1.2734 1.7578 2.2812 3.707 2.9688 5.7852 0.69531 2.1094 1.0742 4.3555 1.0742 6.6836 0 5.8828-2.3867 11.211-6.2422 15.066-3.8555 3.8555-9.1836 6.2422-15.066 6.2422s-11.211-2.3867-15.066-6.2422c-3.8555-3.8555-6.2422-9.1836-6.2422-15.066 0-2.5312 0.45312-4.9805 1.2852-7.2695 0.85937-2.3633 2.1133-4.5273 3.6875-6.4023 1.3203-1.5781 3.6719-1.7891 5.25-0.46484 1.1719 0.98047 1.5898 2.5273 1.1836 3.9062-0.003906 0.015624-0.007812 0.027343-0.011719 0.039062zm5.2539 17.703c-2.4531-0.64844-4.75-1.793-6.7031-3.332-0.33984-0.26563-0.79688-0.26953-1.1406-0.011719-0.34375 0.25781-0.46484 0.70312-0.30078 1.1016 0.70312 1.7031 1.7344 3.2383 3.0156 4.5195 2.5039 2.5039 5.9648 4.0547 9.7891 4.0547 3.8242 0 7.2852-1.5508 9.7891-4.0547 1.2578-1.2578 2.2773-2.7578 2.9766-4.4258 0.16406-0.39453 0.050781-0.83594-0.28516-1.0977s-0.79297-0.26953-1.1328-0.011719c-2.043 1.5273-4.4258 2.6875-6.9492 3.3203-1.4414 0.35938-2.918 0.55469-4.3984 0.55469-1.5664 0-3.1367-0.21484-4.6602-0.61719zm4.6602 30.5c5.8828 0 11.211 2.3867 15.066 6.2422 3.8555 3.8555 6.2422 9.1836 6.2422 15.066 0 5.8828-2.3867 11.211-6.2422 15.066-3.8555 3.8555-9.1836 6.2422-15.066 6.2422-5.8828 0-11.211-2.3867-15.066-6.2422s-6.2422-9.1836-6.2422-15.066c0-5.8828 2.3867-11.211 6.2422-15.066 3.8555-3.8555 9.1836-6.2422 15.066-6.2422zm9.7891 11.52c-2.5039-2.5039-5.9648-4.0547-9.7891-4.0547-3.8242 0-7.2852 1.5508-9.7891 4.0547s-4.0547 5.9648-4.0547 9.7891c0 3.8242 1.5508 7.2852 4.0547 9.7891s5.9648 4.0547 9.7891 4.0547c3.8242 0 7.2852-1.5508 9.7891-4.0547 2.5039-2.5039 4.0547-5.9648 4.0547-9.7891 0-3.8242-1.5508-7.2852-4.0547-9.7891zm1.8359-205c0-1.2891 1.043-2.332 2.332-2.332 1.2891 0 2.332 1.043 2.332 2.332 0 3.8398-2.0156 7.2695-5.2695 9.7188-3.0664 2.3047-7.2617 3.7305-11.855 3.7305-1.2891 0-2.332-1.043-2.332-2.332 0-1.2891 1.043-2.332 2.332-2.332 3.5742 0 6.7773-1.0625 9.0664-2.7812 2.0977-1.5742 3.3945-3.6992 3.3945-6zm-0.73047 25.418c0.11328 0.91406 0.21484 1.875 0.30859 2.8945 0.23828 2.5898 0.42188 5.543 0.55078 9.0039 0.23828 6.2227 0.14844 12.238-0.18359 17.98-0.37109 6.4062-1.0391 12.453-1.8984 18.047-0.46484 3.0273-1.0234 5.6406-1.6211 8.0312-0.10938 0.4375 0.097656 0.875 0.50391 1.0703 0.40625 0.19141 0.87891 0.074219 1.1484-0.28516 2.207-2.9492 4.3281-6.1484 5.957-10.059 2.2578-5.4102 4.0039-11.207 4.9648-17.289 0.86719-5.4961 1.0938-11.246 0.48047-17.18-0.44531-4.3203-1.1055-7.7734-2.0156-10.668-0.45703-1.4492-0.97656-2.7578-1.5625-3.9648-0.22656-0.46094-0.78516-0.65625-1.2461-0.42969-1.4883 0.72266-3.0703 1.3398-4.7266 1.8359-0.44141 0.13281-0.71484 0.55078-0.66016 1.0078zm-16.379 55.957c-0.59766-2.3906-1.1562-5.0039-1.6211-8.0312-0.85938-5.5938-1.5273-11.641-1.8984-18.047-0.33203-5.7422-0.42188-11.758-0.18359-17.98 0.13281-3.5391 0.32031-6.543 0.56641-9.1719 0.097657-1.0469 0.20703-2.0352 0.32031-2.9648 0.054687-0.44922-0.20703-0.86328-0.63672-1.0039-1.6172-0.52734-3.1562-1.168-4.6016-1.9141-0.23047-0.11719-0.46875-0.13672-0.71484-0.058593s-0.42969 0.23828-0.54688 0.46875c-0.70703 1.3984-1.3164 2.9336-1.8398 4.6719-0.85156 2.8242-1.4727 6.1641-1.8984 10.293-0.61328 5.9336-0.38281 11.684 0.48047 17.176 0.95703 6.082 2.707 11.879 4.9648 17.289 1.6289 3.9062 3.75 7.1094 5.957 10.059 0.26953 0.35938 0.74219 0.47656 1.1484 0.28516s0.61328-0.63281 0.50391-1.0703zm1.7227-54.996c-0.082032 0.69922-0.16016 1.4258-0.23047 2.1875-0.23828 2.5234-0.41797 5.4453-0.55078 8.9141-0.23047 6.0469-0.14453 11.926 0.18359 17.562 0.35938 6.1797 1.0156 12.086 1.8633 17.609 0.78516 5.1172 1.8398 8.957 2.8789 12.578 0.11719 0.40625 0.47266 0.67578 0.89844 0.67578 0.42188 0 0.78125-0.26953 0.89844-0.67578 1.043-3.6211 2.0938-7.4609 2.8789-12.578 0.84766-5.5195 1.5039-11.426 1.8633-17.609 0.32812-5.6367 0.41406-11.516 0.18359-17.562-0.12891-3.3945-0.30469-6.2656-0.53516-8.75-0.074219-0.79297-0.15234-1.543-0.23438-2.2656-0.058594-0.50781-0.51562-0.87109-1.0234-0.82031-1.1914 0.12109-2.4062 0.1875-3.6367 0.1875-1.4961 0-2.9648-0.09375-4.3984-0.27344-0.25781-0.03125-0.48828 0.03125-0.69141 0.19141s-0.32031 0.36719-0.35156 0.625zm25.156-6.0508c0.82422 1.5898 1.5352 3.3164 2.1445 5.2578 0.99609 3.1758 1.7148 6.9258 2.1953 11.578 0.65234 6.3359 0.41016 12.48-0.51953 18.363-1.0234 6.5078-2.875 12.66-5.2539 18.367-0.28906 0.69531-0.59375 1.3711-0.90625 2.0234-0.19531 0.40625-0.078125 0.88672 0.28906 1.1523 0.36328 0.26953 0.85547 0.24219 1.1875-0.066406 2.0352-1.8789 3.9141-3.8984 5.4844-6.1367 3.6523-5.2109 6.4844-10.793 8.0352-16.645 1.375-5.1875 1.7383-10.609 0.76562-16.195-0.90625-5.2266-2.3398-9.0664-4.4219-12.129-1.832-2.6953-4.2461-4.9023-7.3203-7.0312-0.35156-0.24219-0.80469-0.22266-1.1328 0.054688-0.10156 0.085937-0.20312 0.17188-0.30469 0.25391-0.34766 0.28125-0.44531 0.75391-0.23828 1.1523zm-37.887 55.59c-0.3125-0.65234-0.61719-1.3281-0.90625-2.0234-2.3789-5.7031-4.2305-11.859-5.2539-18.367-0.92578-5.8828-1.1719-12.027-0.51953-18.363 0.46094-4.4531 1.1367-8.0703 2.0625-11.148 0.69141-2.2969 1.5273-4.3008 2.5156-6.1328 0.21094-0.39062 0.125-0.85938-0.21094-1.1484-0.039063-0.035157-0.078125-0.070313-0.12109-0.10547-0.32422-0.28125-0.78125-0.3125-1.1367-0.070312-3.2266 2.1797-5.7617 4.4375-7.6758 7.2109-2.1367 3.0938-3.5977 6.9648-4.5156 12.258-0.96875 5.5859-0.60547 11.008 0.76562 16.195 1.5508 5.8516 4.3789 11.438 8.0352 16.648 1.5703 2.2383 3.4492 4.2578 5.4844 6.1367 0.33203 0.30859 0.82422 0.33203 1.1875 0.066406 0.36328-0.26953 0.48438-0.74609 0.28906-1.1523zm18.172-93.477c7.418 0 14.188 2.3008 19.137 6.0195 5.2539 3.9492 8.5039 9.4844 8.5039 15.676 0 2.75-0.64062 5.375-1.8164 7.7852-0.20312 0.41406-0.078124 0.90234 0.30078 1.1719 3.5625 2.5234 6.4375 5.2383 8.7461 8.6328 2.7031 3.9766 4.5234 8.7422 5.6172 15.047 1.1602 6.6797 0.72656 13.156-0.91406 19.344-1.7852 6.7344-5 13.105-9.1406 19.008-3.3047 4.7148-7.418 8.3555-11.625 11.668-0.22656 0.17969-0.35156 0.42578-0.35547 0.71484-0.14844 6.9883 0.058593 12.793 0.92969 18.211 0.36328 2.2578 0.84766 4.4609 1.4727 6.6719 0.10156 0.36328 0.39063 0.61719 0.76563 0.66797 0.375 0.054687 0.72266-0.10547 0.92187-0.42578 5.8594-9.293 12.68-16.5 19.383-23.457l0.015625-0.015625 0.011719-0.015625c3.8711-4.1016 6.6016-9.1094 8.5664-14.246 2.0195-5.2852 3.2305-10.695 4.0391-15.441 2.3242-13.684 4.0859-30.25 3.8867-43.777-0.14844-10.172-1.3281-18.414-4.1211-21.863-3.2031-3.9609-7.1875-8.7852-11.289-13.75-13.75-16.648-28.879-34.965-37.664-49.445-2.043-3.3633-4.082-7.5-5.9492-11.926-0.14844-0.35156-0.47656-0.57031-0.85938-0.57031-0.38281 0-0.71094 0.21875-0.85938 0.57031-1.8672 4.4258-3.9062 8.5625-5.9492 11.926-8.7891 14.48-23.918 32.797-37.668 49.445-4.1016 4.9648-8.082 9.7891-11.289 13.75-2.7891 3.4492-3.9688 11.695-4.1211 21.863-0.19922 13.527 1.5625 30.094 3.8867 43.777 0.80469 4.7461 2.0156 10.156 4.0391 15.441 1.9648 5.1367 4.6914 10.141 8.5625 14.238 0.003906 0.003907 0.007813 0.007813 0.007813 0.011719l0.007812 0.007813c0.003907 0.007812 0.011719 0.011718 0.015625 0.015625 6.7031 6.957 13.527 14.164 19.387 23.457 0.19922 0.32031 0.55078 0.48047 0.92188 0.42578 0.37109-0.054687 0.66016-0.30859 0.76562-0.66797 0.62891-2.2109 1.1094-4.4141 1.4727-6.6719 0.87891-5.4688 1.082-11.332 0.92578-18.406-0.007812-0.37109 0.039063-0.73047 0.13281-1.0703 0.10156-0.36328-0.015625-0.73047-0.30469-0.96875-3.5352-2.9102-6.9219-6.1406-9.7305-10.145-4.1406-5.9023-7.3594-12.273-9.1406-19.008-1.6406-6.1914-2.0742-12.664-0.91406-19.344 1.1133-6.4062 2.9688-11.223 5.7383-15.234 2.4062-3.4805 5.4336-6.2539 9.2109-8.8516 0.375-0.25781 0.51172-0.74219 0.32031-1.1562-1.0547-2.3008-1.6289-4.7891-1.6289-7.3906 0-6.1914 3.25-11.73 8.5039-15.676 4.9492-3.7188 11.723-6.0195 19.137-6.0195zm14.676 11.969c-3.7031-2.7812-8.8867-4.5039-14.676-4.5039-5.7891 0-10.973 1.7227-14.676 4.5039-3.3984 2.5547-5.5 5.9961-5.5 9.7266 0 3.7305 2.1016 7.1758 5.5 9.7266 3.7031 2.7812 8.8867 4.5039 14.676 4.5039 5.7891 0 10.973-1.7227 14.676-4.5039 3.3984-2.5547 5.5-5.9961 5.5-9.7266 0-3.7305-2.1016-7.1758-5.5-9.7266zm-88.965 268.7c-3.5117-1.3477-7.6797-2.9609-11.707-4.5234-23.363-9.0469-41.523-16.082-67.477-21.82-4.2656-0.94531-7.5078-0.58984-9.8203 0.65234-1.2031 0.64844-2.1758 1.5508-2.9258 2.6406-0.81641 1.1914-1.3945 2.5977-1.7344 4.1523-1.0664 4.8203 0 10.895 2.9414 16.367 11.438 21.289 28.34 39.043 49.105 51.93 14.047 8.7148 29.875 15.211 46.984 19.074 0.41016 0.09375 0.8125-0.085938 1.0195-0.45312 0.20703-0.36719 0.14844-0.80469-0.14062-1.1055-4.2266-4.375-7.7969-9.8242-10.816-16.48-7.2656-16.016-2.6445-32.871 5.082-49.164 0.11719-0.24219 0.125-0.49609 0.023438-0.74609-0.10156-0.25-0.28125-0.42969-0.53125-0.52344zm28.734 79.496c-27.57-2.125-52.855-10.488-74.262-23.77-21.891-13.582-39.707-32.293-51.762-54.727-3.7617-7.0039-5.082-14.984-3.6406-21.5 0.55078-2.4922 1.4922-4.7812 2.8438-6.7461 1.418-2.0625 3.2617-3.7734 5.5508-5.0039 3.8164-2.0508 8.7891-2.7188 14.957-1.3516 26.535 5.8711 44.914 12.988 68.555 22.141 3.5859 1.3906 7.3086 2.832 12.578 4.8438 0.44141 0.16797 0.93359-0.015625 1.1562-0.43359 2.2031-4.1445 4.5156-8.2383 6.7812-12.25 0.66797-1.1836 1.3359-2.3672 2.8125-5.0078 7.1523-12.812 7.0781-31.254 3.0547-51.227-5.4414-27.02-18.113-56.648-30.105-79.336-14.754-27.91-14.637-59.023-14.523-89.672 0.023438-5.957 0.042969-11.898-0.046875-17.801-0.10156-6.7227 0.46094-11.148 2.1094-15.008 1.6719-3.9141 4.2812-6.9023 8.293-10.809 13.816-13.445 27.91-26.66 41.98-39.852 3.75-3.5156 7.4961-7.0273 11.234-10.543 9.9961-9.3945-0.79297-25.852-10.105-40.059-2.2773-3.4727-4.4727-6.8203-6.3945-10.121-1.6055-2.7539-1.4297-5.9062-0.10547-8.6992 0.76953-1.6211 1.9375-3.125 3.3555-4.3203 1.4375-1.2109 3.168-2.1406 5.0508-2.5938 3.0508-0.73438 6.3633-0.22656 9.3242 2.2773 3.4883 2.9492 7.8906 10.34 13.199 19.254l0.28125 0.47656c0.89062 1.4961 1.9414 2.8516 3.0625 3.9102 0.98047 0.92188 1.9648 1.582 2.8672 1.8398 0.55469 0.15625 1.0781 0.13281 1.5273-0.13672 0.23047-0.13672 0.47266-0.33594 0.72266-0.60156l3.25-3.4492c1.9648-2.0859 4.1562-3.4141 6.2812-4.0547 1.4062-0.42188 2.8008-0.54688 4.1172-0.39062 0.078125 0.007813 0.14453 0.007813 0.21875 0 1.3164-0.15625 2.7148-0.03125 4.1172 0.39062 2.125 0.64062 4.3164 1.9688 6.2812 4.0547l3.25 3.4492c0.25391 0.26562 0.49219 0.46484 0.72266 0.60156 0.44922 0.26953 0.97656 0.29297 1.5273 0.13672 0.90234-0.25391 1.8906-0.91406 2.8672-1.8398 1.1211-1.0586 2.1719-2.4102 3.0625-3.9102l0.28125-0.47656c5.3086-8.9102 9.7109-16.305 13.199-19.254 2.9609-2.5039 6.2734-3.0117 9.3242-2.2773 1.8789 0.45312 3.6133 1.3828 5.0508 2.5938 1.418 1.1953 2.5859 2.7031 3.3555 4.3203 1.3242 2.793 1.5 5.9453-0.10547 8.6992-1.9219 3.3008-4.1172 6.6484-6.3945 10.121-9.3125 14.203-20.102 30.66-10.105 40.059 3.7383 3.5117 7.4844 7.0234 11.23 10.539 14.07 13.191 28.168 26.406 41.984 39.855 4.0117 3.9062 6.6211 6.8945 8.293 10.809 1.6484 3.8594 2.2109 8.2852 2.1094 15.008-0.089844 5.9023-0.066407 11.844-0.046876 17.801 0.11328 30.648 0.23047 61.762-14.523 89.672-11.992 22.688-24.664 52.316-30.105 79.336-4.0234 19.973-4.0977 38.414 3.0547 51.227 1.4727 2.6406 2.1406 3.8242 2.8125 5.0078 2.2656 4.0156 4.5781 8.1055 6.7812 12.254 0.22266 0.41797 0.71484 0.60156 1.1562 0.43359 5.2656-2.0078 8.9961-3.4531 12.578-4.8438 23.641-9.1562 42.02-16.273 68.555-22.141 6.168-1.3633 11.137-0.69922 14.957 1.3516 2.2891 1.2305 4.1328 2.9414 5.5508 5.0039 1.3516 1.9648 2.293 4.2578 2.8438 6.7461 1.4414 6.5156 0.12109 14.496-3.6406 21.5-12.051 22.434-29.867 41.145-51.762 54.727-21.414 13.285-46.707 21.648-74.289 23.77-0.054687 0.003907-0.097656 0.011719-0.14844 0.023438-7.8984 1.9297-17.016 2.4453-27.586 1.8125-4.875-0.28906-8.8984-0.97266-12.125-2.4883-0.28906-0.13672-0.60156-0.12109-0.87891 0.046875-0.41406 0.25-0.88281 0.42188-1.3945 0.49219-18.785 2.7227-33.805 3.1016-45.93 0.13281-0.050781-0.011719-0.097656-0.019532-0.14844-0.023438zm116.47-78.223c7.7266 16.293 12.344 33.148 5.082 49.164-3.0195 6.6523-6.5938 12.102-10.84 16.484-0.29297 0.30078-0.34766 0.74219-0.14453 1.1055 0.20703 0.36719 0.60938 0.54688 1.0195 0.45312 17.117-3.8633 32.953-10.359 47.008-19.078 20.766-12.883 37.668-30.637 49.105-51.93 2.9414-5.4727 4.0078-11.547 2.9414-16.367-0.34375-1.5547-0.91797-2.9609-1.7344-4.1523-0.75-1.0938-1.7227-1.9961-2.9258-2.6406-2.3125-1.2422-5.5547-1.5977-9.8203-0.65234-25.949 5.7383-44.113 12.773-67.477 21.82-4.0273 1.5586-8.1914 3.1719-11.707 4.5234-0.25 0.097656-0.43359 0.27344-0.53125 0.52344-0.10156 0.25-0.09375 0.50391 0.023437 0.74609z"/>
  <use x="70" y="560.140625" xlink:href="#w"/>
  <use x="70.035156" y="560.140625" xlink:href="#e"/>
  <use x="70.058594" y="560.140625" xlink:href="#b"/>
  <use x="70.089844" y="560.140625" xlink:href="#a"/>
  <use x="70.121094" y="560.140625" xlink:href="#d"/>
  <use x="70.144531" y="560.140625" xlink:href="#b"/>
  <use x="70.175781" y="560.140625" xlink:href="#l"/>
  <use x="70.222656" y="560.140625" xlink:href="#k"/>
  <use x="70.257812" y="560.140625" xlink:href="#j"/>
  <use x="70.304688" y="560.140625" xlink:href="#i"/>
  <use x="70.34375" y="560.140625" xlink:href="#v"/>
  <use x="70.359375" y="560.140625" xlink:href="#b"/>
  <use x="70.390625" y="560.140625" xlink:href="#f"/>
  <use x="70.425781" y="560.140625" xlink:href="#a"/>
  <use x="70.472656" y="560.140625" xlink:href="#h"/>
  <use x="70.507812" y="560.140625" xlink:href="#a"/>
  <use x="70.539062" y="560.140625" xlink:href="#f"/>
  <use x="70.570312" y="560.140625" xlink:href="#a"/>
  <use x="70.601562" y="560.140625" xlink:href="#g"/>
  <use x="70.628906" y="560.140625" xlink:href="#c"/>
  <use x="70.664062" y="560.140625" xlink:href="#u"/>
  <use x="70.691406" y="560.140625" xlink:href="#g"/>
  <use x="70.722656" y="560.140625" xlink:href="#t"/>
  <use x="70.75" y="560.140625" xlink:href="#a"/>
  <use x="70" y="560.1875" xlink:href="#s"/>
  <use x="70.019531" y="560.1875" xlink:href="#e"/>
  <use x="70.042969" y="560.1875" xlink:href="#c"/>
  <use x="70.074219" y="560.1875" xlink:href="#r"/>
  <use x="70.140625" y="560.1875" xlink:href="#d"/>
  <use x="70.164062" y="560.1875" xlink:href="#q"/>
  <use x="70.195312" y="560.1875" xlink:href="#b"/>
  <use x="70.242188" y="560.1875" xlink:href="#p"/>
  <use x="70.28125" y="560.1875" xlink:href="#c"/>
  <use x="70.316406" y="560.1875" xlink:href="#o"/>
  <use x="70.347656" y="560.1875" xlink:href="#f"/>
  <use x="70.398438" y="560.1875" xlink:href="#h"/>
  <use x="70.433594" y="560.1875" xlink:href="#e"/>
  <use x="70.453125" y="560.1875" xlink:href="#c"/>
  <use x="70.488281" y="560.1875" xlink:href="#n"/>
  <use x="70.503906" y="560.1875" xlink:href="#b"/>
  <use x="70.535156" y="560.1875" xlink:href="#m"/>
  <use x="70.5625" y="560.1875" xlink:href="#d"/>
 </g>
</svg>
