<?xml version="1.0" encoding="UTF-8"?>
<svg width="1200pt" height="1200pt" version="1.1" viewBox="0 0 1200 1200" xmlns="http://www.w3.org/2000/svg">
 <g>
  <path d="m556.43 357h6.5039c2.0391 0 3.6914 2.0391 3.6914 3.6914v486.16c0 2.0391-1.6523 3.6914-3.6914 3.6914h-6.5039c-2.0391 0-3.6914-2.0391-3.6914-3.6914v-486.16c0-2.0391 1.6523-3.6914 3.6914-3.6914z"/>
  <path d="m407.46 640.33v-6.5039c0-2.0391 2.0391-3.6914 3.6914-3.6914h295.52c2.0391 0 3.6914 1.6523 3.6914 3.6914v6.5039c0 2.0391-2.0391 3.6914-3.6914 3.6914h-295.52c-2.0391 0-3.6914-1.6523-3.6914-3.6914z"/>
  <path d="m559.44 356.93h156.03c2.2461 0 4.0664 2.2461 4.0664 4.0664v5.7539c0 2.2461-1.8203 4.0664-4.0664 4.0664h-156.03c-2.2461 0-4.0664-2.2461-4.0664-4.0664v-5.7539c0-2.2461 1.8203-4.0664 4.0664-4.0664z"/>
 </g>
</svg>
