<?xml version="1.0" encoding="UTF-8"?>
<svg width="700pt" height="700pt" version="1.1" viewBox="0 0 700 700" xmlns="http://www.w3.org/2000/svg">
 <path d="m461.62 358.38c30.422-38.824 44.879-87.797 40.414-136.92-4.4609-49.125-27.504-94.691-64.422-127.4-36.918-32.711-84.93-50.094-134.23-48.605-49.305 1.4883-96.176 21.738-131.05 56.617s-55.129 81.754-56.617 131.05c-1.4883 49.301 15.895 97.312 48.605 134.23 32.707 36.918 78.273 59.961 127.4 64.422 49.121 4.4648 98.094-9.9922 136.92-40.414l115.13 115.12c5.9258 5.7461 14.441 7.9375 22.402 5.7617 7.957-2.1758 14.176-8.3945 16.352-16.355 2.1797-7.957-0.011719-16.477-5.7578-22.398zm-298.04-118.75c-0.003907-38.797 15.406-76.008 42.84-103.45 27.43-27.438 64.641-42.852 103.44-42.855 38.797 0 76.008 15.41 103.44 42.844 27.438 27.434 42.852 64.641 42.852 103.44 0 38.797-15.414 76.008-42.848 103.44-27.438 27.434-64.645 42.844-103.45 42.844-38.777-0.046875-75.957-15.473-103.38-42.895-27.422-27.418-42.848-64.594-42.898-103.38z"/>
</svg>
