<?xml version="1.0" encoding="UTF-8"?>
<svg width="700pt" height="700pt" version="1.1" viewBox="0 0 700 700" xmlns="http://www.w3.org/2000/svg">
 <path d="m349.93 17.43c-9.0625 0-18.035 1.2812-26.867 3.625-8.832 2.3438-17.449 5.7734-25.566 10.457-8.1172 4.6875-15.531 10.445-21.977 16.922-6.4453 6.4727-11.875 13.754-16.406 21.602s-8.0742 16.234-10.461 25.051c-2.3828 8.8203-3.6211 18.008-3.6211 27.379v17.57h-70c-0.60547-0.03125-1.2109-0.03125-1.8125 0-4.3203 0.43359-8.3281 2.457-11.238 5.6758-2.9141 3.2227-4.5234 7.4141-4.5195 11.754v367.54c0.019531 4.6406 1.8789 9.0859 5.1758 12.355 3.293 3.2656 7.7539 5.0938 12.395 5.0742h349.93c4.6484 0.027343 9.1133-1.793 12.418-5.0625 3.3008-3.2695 5.168-7.7188 5.1875-12.367v-367.54c-0.019531-4.6445-1.8867-9.0938-5.1875-12.363-3.3047-3.2734-7.7695-5.0938-12.418-5.0664h-70v-17.57c0-9.3711-1.2383-18.559-3.6211-27.379-2.3867-8.8164-5.9297-17.203-10.461-25.051s-10.098-15.129-16.543-21.602c-6.4453-6.4766-13.691-12.234-21.805-16.922-8.1172-4.6836-16.77-8.1133-25.602-10.457-8.832-2.3438-17.941-3.625-27-3.625zm0 35.004c6.043-0.003906 12.195 0.89453 18.078 2.4609 5.8867 1.5625 11.5 3.8398 16.922 6.9688 5.418 3.1328 10.332 6.9336 14.629 11.246 4.293 4.3164 8.0859 9.1211 11.105 14.355 3.0234 5.2344 5.3867 10.906 6.9727 16.781 1.5898 5.8789 2.3242 11.961 2.3242 18.219v17.57h-139.89v-17.57c0-6.2578 0.73438-12.34 2.3242-18.219 1.5859-5.875 3.9492-11.547 6.9727-16.781 3.0195-5.2344 6.6758-10.039 10.969-14.355 4.2969-4.3125 9.3125-8.1133 14.734-11.246 5.418-3.1289 11.031-5.4062 16.918-6.9688 5.8828-1.5664 11.898-2.4609 17.945-2.4609zm-157.47 122.6h52.57v52.465c-0.078125 4.3516 1.4648 8.5781 4.3359 11.852 2.8711 3.2734 6.8555 5.3594 11.18 5.8555 5.0156 0.58203 10.039-1.0312 13.777-4.4258 3.7422-3.3906 5.832-8.2344 5.7422-13.281v-52.465h139.89v52.465c0.13672 6.1602 3.5039 11.793 8.8594 14.836 5.3594 3.0391 11.922 3.0391 17.281 0 5.3594-3.043 8.7227-8.6758 8.8594-14.836v-52.465h52.57v332.53h-315.07z"/>
</svg>
